<?xml version="1.0" encoding="UTF-8" standalone="no"?>
<!-- Created with Inkscape (http://www.inkscape.org/) -->

<svg
   xmlns:dc="http://purl.org/dc/elements/1.1/"
   xmlns:cc="http://creativecommons.org/ns#"
   xmlns:rdf="http://www.w3.org/1999/02/22-rdf-syntax-ns#"
   xmlns:svg="http://www.w3.org/2000/svg"
   xmlns="http://www.w3.org/2000/svg"
   xmlns:sodipodi="http://sodipodi.sourceforge.net/DTD/sodipodi-0.dtd"
   xmlns:inkscape="http://www.inkscape.org/namespaces/inkscape"
   width="210mm"
   height="297mm"
   viewBox="0 0 210 297"
   version="1.1"
   id="svg8"
   inkscape:version="0.92.4 (5da689c313, 2019-01-14)"
   sodipodi:docname="描画.svg">
  <defs
     id="defs2">
    <symbol
       id="ThoughtBalloon">
      <title
         id="title830">Thought Balloon</title>
      <path
         inkscape:connector-curvature="0"
         d="M 44.979167,15.875 C 40.216667,12.170833 31.485417,12.964583 28.575,17.727083 20.108333,12.7 13.49375,27.252083 22.754167,32.54375 c -7.9375,2.645833 -7.9375,13.229167 0.79375,15.08125 -0.529167,7.9375 14.022916,7.672917 15.610416,2.116667 2.645834,6.085416 12.435417,7.672916 15.875,2.38125 3.704167,2.645833 9.525,1.322916 11.377084,-2.38125 2.910416,6.614583 10.847916,5.55625 13.229166,0.264583 C 88.9,51.064583 90.222917,41.804167 87.3125,36.777083 c 6.35,-2.38125 5.820833,-10.31875 0.79375,-12.7 C 92.339583,17.197917 83.608333,8.73125 77.7875,16.404167 74.347917,12.620625 65.352083,12.7 62.970833,16.66875 58.7375,11.641667 48.947917,11.1125 44.979167,15.875 Z"
         style="stroke:none;stroke-width:0.26458332"
         id="path832" />
      <path
         inkscape:connector-curvature="0"
         d="m 43.65625,14.552083 c -4.7625,-3.704166 -13.49375,-2.910416 -16.404167,1.852084 -8.466666,-5.027084 -15.08125,9.525 -5.820833,14.816666 -7.9375,2.645834 -7.9375,13.229167 0.79375,15.08125 -0.529167,7.9375 14.022917,7.672917 15.610417,2.116667 2.645833,6.085417 12.435416,7.672917 15.875,2.38125 3.704166,2.645833 9.525,1.322917 11.377083,-2.38125 2.910417,6.614583 10.847917,5.55625 13.229167,0.264583 9.260416,1.058334 10.583333,-8.202083 7.672916,-13.229166 6.35,-2.38125 5.820834,-10.31875 0.79375,-12.7 C 91.016667,15.875 82.285417,7.4083333 76.464583,15.08125 73.025,11.297708 64.029167,11.377083 61.647917,15.345833 57.414583,10.31875 47.625,9.7895833 43.65625,14.552083 Z"
         style="fill:#eeeeee;stroke-width:0.92604166"
         id="path834" />
      <path
         inkscape:connector-curvature="0"
         d="m 43.127083,15.345833 c -4.497916,-3.175 -12.7,-2.910416 -15.345833,1.5875 -9.789583,-3.704166 -12.170833,11.1125 -4.497917,14.022917 -8.73125,3.704167 -5.291666,12.7 0.529167,13.229167 -1.322917,7.672916 12.435417,7.672916 14.022917,1.852083 2.645833,6.614583 11.377083,6.35 15.345833,2.116667 3.439583,2.38125 8.995833,1.058333 10.583333,-2.116667 2.645834,5.820833 10.847917,5.027083 12.7,0.264583 8.202084,1.852084 9.789584,-7.408333 7.14375,-11.377083 6.085417,-1.852083 5.55625,-10.054167 0.79375,-12.170833 C 88.10625,15.875 80.433333,8.9958333 76.464583,16.933333 71.4375,12.805833 65.0875,10.847917 60.854167,16.66875 56.885417,11.377083 47.360417,10.583333 43.127083,15.345833 Z"
         style="fill:#ffffff;stroke:none;stroke-width:0.26458332"
         id="path836" />
      <ellipse
         cx="30.956249"
         cy="63.235416"
         rx="7.9375"
         ry="5.5562501"
         style="stroke:none;stroke-width:0.26458332"
         id="ellipse838" />
      <ellipse
         cx="29.897917"
         cy="62.177082"
         rx="7.9375"
         ry="5.5562501"
         style="fill:#eeeeee;stroke-width:0.92604166"
         id="ellipse840" />
      <ellipse
         cx="29.104166"
         cy="61.647915"
         rx="6.0854168"
         ry="4.4979167"
         style="fill:#ffffff;stroke:none;stroke-width:0.26458332"
         id="ellipse842" />
      <ellipse
         cx="19.579166"
         cy="72.760414"
         rx="3.96875"
         ry="2.9104166"
         style="stroke:none;stroke-width:0.26458332"
         id="ellipse844" />
      <ellipse
         cx="18.520834"
         cy="71.70208"
         rx="3.96875"
         ry="2.9104166"
         style="fill:#eeeeee;stroke-width:0.92604166"
         id="ellipse846" />
      <ellipse
         cx="17.727083"
         cy="71.17292"
         rx="2.1166666"
         ry="1.8520833"
         style="fill:#ffffff;stroke:none;stroke-width:0.26458332"
         id="ellipse848" />
    </symbol>
  </defs>
  <sodipodi:namedview
     id="base"
     pagecolor="#ffffff"
     bordercolor="#666666"
     borderopacity="1.0"
     inkscape:pageopacity="0.0"
     inkscape:pageshadow="2"
     inkscape:zoom="0.25"
     inkscape:cx="-1490.9635"
     inkscape:cy="762.73927"
     inkscape:document-units="mm"
     inkscape:current-layer="layer1"
     showgrid="false"
     inkscape:window-width="1856"
     inkscape:window-height="1016"
     inkscape:window-x="64"
     inkscape:window-y="27"
     inkscape:window-maximized="1" />
  <metadata
     id="metadata5">
    <rdf:RDF>
      <cc:Work
         rdf:about="">
        <dc:format>image/svg+xml</dc:format>
        <dc:type
           rdf:resource="http://purl.org/dc/dcmitype/StillImage" />
        <dc:title />
      </cc:Work>
    </rdf:RDF>
  </metadata>
  <g
     inkscape:label="レイヤー 1"
     inkscape:groupmode="layer"
     id="layer1">
    <path
       style="opacity:0.96700003;fill:#bcb89c;fill-opacity:1;stroke:none;stroke-width:0.30000001;stroke-miterlimit:4;stroke-dasharray:none;stroke-opacity:1"
       inkscape:transform-center-x="-2.3523809e-06"
       d="m -162.9922,25.27072 c -0.28595,8.865567 60.74763,40.864138 55.93963,48.31821 -4.84122,7.505572 -60.94168,-32.567947 -68.8165,-28.353888 -7.82078,4.185143 -5.01556,73.041058 -13.87498,72.604248 -8.92062,-0.43983 -2.26617,-69.061019 -9.85306,-73.773779 -7.53483,-4.680424 -65.7632,32.176921 -69.81461,24.286036 -4.07941,-7.945404 58.67551,-36.49307 58.96343,-45.41989 18.60236,-15.9265311 23.16021,-16.0177271 47.45609,2.339063 z"
       id="path815"
       inkscape:connector-curvature="0"
       sodipodi:nodetypes="cssssscc" />
    <circle
       style="opacity:0.96700003;fill:#bcb89c;fill-opacity:1;stroke:none;stroke-width:0.30000001;stroke-miterlimit:4;stroke-dasharray:none;stroke-opacity:1"
       id="path817"
       cx="-189.36607"
       cy="121.24107"
       r="25.324406" />
    <circle
       style="opacity:0.96700003;fill:#bcb89c;fill-opacity:1;stroke:none;stroke-width:0.30000001;stroke-miterlimit:4;stroke-dasharray:none;stroke-opacity:1"
       id="path817-3"
       cx="-272.8988"
       cy="68.702377"
       r="25.324406" />
    <circle
       style="opacity:0.96700003;fill:#bcb89c;fill-opacity:1;stroke:none;stroke-width:0.30000001;stroke-miterlimit:4;stroke-dasharray:none;stroke-opacity:1"
       id="path817-6"
       cx="-105.07738"
       cy="76.261902"
       r="25.324406" />
    <circle
       style="opacity:0.96700003;fill:#bcb89c;fill-opacity:1;stroke:none;stroke-width:0.34477612;stroke-miterlimit:4;stroke-dasharray:none;stroke-opacity:1"
       id="path817-3-7"
       cx="-187.4762"
       cy="26.369047"
       r="29.104168" />
    <path
       style="opacity:0.96700003;fill:#9cbcb6;fill-opacity:1;stroke:none;stroke-width:0.30000001;stroke-miterlimit:4;stroke-dasharray:none;stroke-opacity:1"
       d="m 115.66062,249.18577 a 29.104166,29.104166 0 0 0 29.10416,-29.10416 29.104166,29.104166 0 0 0 -0.23409,-3.38842 c 8.46955,-6.57093 24.3954,-15.49787 36.63549,-23.31538 a 25.324405,25.324405 0 0 0 19.91713,9.69502 25.324405,25.324405 0 0 0 25.32455,-25.32456 25.324405,25.324405 0 0 0 -25.32455,-25.32455 25.324405,25.324405 0 0 0 -25.32403,25.32455 25.324405,25.324405 0 0 0 0.63613,5.49734 c -12.86943,5.78008 -28.66625,14.00081 -38.88496,17.66456 a 29.104166,29.104166 0 0 0 -12.87208,-8.49561 c -1.27137,-10.92003 -1.06744,-28.52573 -1.7198,-42.48784 A 25.324405,25.324405 0 0 0 142.87498,125.20936 25.324405,25.324405 0 0 0 117.55094,99.885319 25.324405,25.324405 0 0 0 92.226386,125.20936 25.324405,25.324405 0 0 0 111.75491,149.8337 c -1.41324,14.01932 -2.19431,31.68622 -4.12636,42.28631 a 29.104166,29.104166 0 0 0 -12.510864,7.36906 c -9.90249,-4.05458 -25.49271,-13.31399 -38.331,-19.98483 a 25.324405,25.324405 0 0 0 1.79989,-9.31571 25.324405,25.324405 0 0 0 -25.32454,-25.32404 25.324405,25.324405 0 0 0 -25.3245504,25.32404 25.324405,25.324405 0 0 0 25.3245504,25.32455 25.324405,25.324405 0 0 0 17.18395,-6.75411 c 12.39858,8.93441 28.92439,19.38531 36.55074,26.46815 a 29.104166,29.104166 0 0 0 -0.44028,4.85449 29.104166,29.104166 0 0 0 29.104174,29.10416 z"
       id="path815-5"
       inkscape:connector-curvature="0" />
    <path
       style="opacity:0.96700003;fill:#9cbcb6;fill-opacity:1;stroke:none;stroke-width:0.2298954;stroke-miterlimit:4;stroke-dasharray:none;stroke-opacity:1"
       d="m -149.91021,295.28819 -39.83382,66.72371 h 149.678556 l -39.83381,-67.27974 z"
       id="rect4587"
       inkscape:connector-curvature="0"
       sodipodi:nodetypes="ccccc" />
    <path
       id="path815-5-1"
       d="M-313.44630010949345 168.35439395721536C-314.64779348016526 163.99930085240877 -317.63900444420574 160.04795499520927 -321.6945736527934 157.2781664742383C-325.6105431916707 154.60371883954198 -330.30987246229563 153.17531492265707 -334.8591943817456 153.2359362070675C-335.5256493126387 153.25059184451334 -336.1860504785948 153.2970090476912 -336.8374202051104 153.3749939298543C-341.21927283933564 149.45754604350608 -347.0026734147867 142.58281187037454 -351.6053119488109 137.71999589880488C-348.5368017957743 135.82892495319794 -346.95135121706494 133.07233935250486 -347.2347817069591 130.29748737606707C-347.4716928041407 127.9893233815348 -348.984766169641 125.87039357325597 -351.4010190223355 124.37428127035116C-353.7596539866803 122.91384521363528 -356.8319074727627 122.1387592955812 -359.9836993563266 122.19249036589572C-363.1331385859019 122.24615782036868 -366.18484115018975 123.12440319712212 -368.51034282998125 124.66117762198623C-370.8899779458092 126.23372535148977 -372.35916667287387 128.39580605705032 -372.55638078261865 130.70413262051C-372.98986509178053 135.77866568365815 -367.31366022950095 140.09106707924687 -359.83572751042703 139.97934647325107C-358.84556999145246 139.96031383844894 -357.8606316721552 139.86016611097364 -356.90017222729887 139.6809773469305C-353.5414167608884 144.9632302593147 -348.40314014303516 152.0049699251294 -345.80050858681045 156.94664102030092C-348.0259566308299 158.72663932296643 -349.64763253401804 161.0618163318148 -350.47840192390976 163.7412900079731C-357.2841158529927 164.51886754521212 -368.2988646620215 164.5395522779529 -377.0455591709286 165.0024698731919C-377.9807921473893 158.8556315246617 -383.58079300753934 154.80171596771925 -390.5467935456827 154.88659773167282C-398.7163570492014 154.99467401690742 -406.9101292280578 160.77158763253067 -409.02566300696657 168.37600637876787C-411.34568119991496 176.71576084307708 -405.58848925246576 184.01614285872705 -395.93514330457754 183.9219681318447C-387.811560341441 183.83383309773922 -380.1893066655493 178.4347857728207 -377.70895499010186 171.37447528274103C-368.64839523500893 172.11361298488302 -357.0909974486291 172.45377652431773 -350.05684092286214 173.54745258598024C-348.960991548259 176.46822306028608 -347.04485491397054 179.20498418800955 -344.4660208767608 181.47096207221765C-346.7648233191311 188.33816769509437 -352.93195590047793 200.24450941607682 -357.8389064511904 211.18630813960652C-360.2132591015808 210.1502373468131 -362.72273043695077 209.62754350384026 -365.2524471651016 209.63766388231215C-376.3229334609994 209.71184895029853 -386.46073796229564 220.2269309980172 -388.0919933928537 234.6222768329202C-389.94707108148896 250.99146362040105 -380.3473572658463 266.00565273994175 -366.364570224935 266.0059443050945C-359.6331691335702 266.0060017956669 -353.2752973565319 262.2993616365783 -348.8646699126475 255.94165244815548C-344.65498102497725 249.87358660898497 -342.7082158304759 242.0818148174325 -343.2759153625203 234.45502918833938C-343.79049892547687 227.6418333079283 -346.2795732373209 221.451118109873 -350.1424166028383 216.967285789933C-343.70128289545835 205.7993436816671 -337.1173716910216 192.53562167742206 -332.73122774013524 186.93886659247593C-331.55416352499816 187.1280421926763 -330.3747222269077 187.2216828850295 -329.2070897941447 187.21846671734795C-317.6708073792405 187.11113935990136 -310.7331781622961 178.1887431093816 -313.4463001094935 168.35439395721536C-313.4463001094935 168.35439395721536 -313.44630010949345 168.35439395721536 -313.44630010949345 168.35439395721536"
       style="opacity:0.96700003;fill:#9cbcb6;fill-opacity:1;stroke:none;stroke-width:0.30000001;stroke-miterlimit:4;stroke-dasharray:none;stroke-opacity:1"
       inkscape:connector-curvature="0" />
    <path
       inkscape:connector-curvature="0"
       id="path815-5-2"
       d="M-252.90471532833578 275.352710146596C-258.05307359510766 275.39359945297855 -262.6740411820422 278.295367915948 -263.2960965700518 282.2432249197988C-263.3386571321698 282.5405967022307 -263.3577196209213 282.8400585599333 -263.352864230445 283.14008525483683C-266.7805155270978 284.9735831584093 -273.44343232961836 287.6389358467903 -279.0250206642462 290.1389307701501C-280.1928666487977 288.2041879133022 -282.5760770253424 287.1321483154864 -285.5359541238583 287.1507707677935C-288.09137465275614 287.16754588143243 -290.97177412144083 287.9941448223484 -293.6274933093312 289.4955357655965C-296.3949459081005 291.06009435545303 -298.7852230609678 293.28127378777447 -300.2500913856314 295.7350312129338C-301.81168376686225 298.35075008153973 -302.1993624537403 301.0208682555821 -301.2086485917121 303.098590671395C-300.16719624279 305.28272170386754 -297.732126196618 306.5517423068245 -294.47942550701197 306.5378453216513C-287.69800267964416 306.5088101779987 -280.49749899889844 301.2706958474808 -278.6590372751254 295.61504298091495C-278.438521625579 294.92291204942325 -278.30777565256534 294.2457243770557 -278.26677646513264 293.59487150741853C-272.38085926297197 291.54616055169004 -265.4927102004544 288.81265167895424 -261.34875446664086 287.64743529935595C-260.138258836416 288.86531735584845 -258.46076528239877 289.79627043617853 -256.50331266206797 290.31543044305374C-256.1497920962083 294.09979334760834 -256.53361044456886 301.098656877554 -256.4875411161388 307.613644872621C-262.38151426447035 308.92329961228114 -267.3785700020173 314.57822970785475 -268.4838808030049 322.02702843465465C-270.0066139230711 332.36358562279156 -263.7369436299179 342.35693740607474 -254.16707691433544 342.35713058042165C-244.5752885200176 342.3572074988407 -238.07050627913432 332.32584149209845 -239.400701887313 321.9568161573717C-240.35354547845316 314.58409976990987 -245.15504195534447 308.98812863518634 -250.95016028222273 307.6376366108722C-250.4413609224796 301.0843800048375 -250.31818961717565 294.0571632733364 -249.66442227173678 290.3705816356057C-247.7923895982268 289.9116005326107 -246.1452482232652 289.0813490953638 -244.88938617337675 287.9789046724581C-240.80995103068818 289.23401068124775 -233.82458838492332 292.29807066184117 -227.71472288357367 294.6719564100015C-227.86805919639855 295.7933238684532 -227.74964513498296 297.02326069966267 -227.3530744708699 298.3027054317579C-225.43868934884964 304.4260317449755 -217.83323657778047 310.0837377568398 -210.63085043758875 310.0562571923114C-203.41616871189862 310.0288154395699 -200.92747479996396 304.31618742551564 -204.55799298673813 298.1840339749584C-206.12716055918418 295.5336639708115 -208.66861770537102 293.15504451302104 -211.59720763248552 291.4984862739495C-214.39979946853214 289.91319891303436 -217.43035548902202 289.06165199730304 -220.1138853002812 289.07854559423276C-222.65778653051757 289.0973345750667 -224.80651858718394 289.8960310143683 -226.17255938588423 291.35835237368065C-232.11383026429775 288.4591116306839 -239.2535254284731 285.35200306853557 -242.4358502829966 283.3895734242967C-242.40124541757146 282.95604754920953 -242.41666814863908 282.52290716286143 -242.48098894312807 282.09472788737986C-242.7927519448603 280.1375801925196 -244.11133407407783 278.37507063105863 -246.095965895387 277.14552116123684C-248.0016270165678 275.9648968277712 -250.43015073513527 275.333056874398 -252.90471533208208 275.3527101466258C-252.90471533208208 275.3527101466258 -252.90471533058738 275.3527101466139 -252.90471533058738 275.3527101466139"
       style="opacity:0.96700003;fill:#9cbcb6;fill-opacity:1;stroke:none;stroke-width:0.30000001;stroke-miterlimit:4;stroke-dasharray:none;stroke-opacity:1" />
    <path
       inkscape:connector-curvature="0"
       id="path815-5-7"
       d="M-123.84999006686095 210.34850708067316C-118.69652609183295 210.3075788468508 -114.10474590742999 213.142483404226 -113.54112260740324 217.09055914461388C-113.50297790324011 217.38805335219283 -113.48847650271148 217.68798162734242 -113.49801706125089 217.98881590251457C-110.0795575896688 219.7799334309531 -103.40457676201515 222.3668728353562 -97.80078024275899 224.80914006467796C-96.58798649785578 222.8472444000322 -94.15592522733778 221.73664414490034 -91.15265182509918 221.7160888620544C-88.55635630290655 221.69902211763284 -85.63875267773061 222.49477633085428 -82.95678630441093 223.97587389071705C-80.15836769842801 225.52128139844265 -77.75205834649032 227.7370788916254 -76.2932126520517 230.20111456582524C-74.73692741501927 232.8296700943171 -74.38222553793152 235.5270002481262 -75.42873545532741 237.63853482603733C-76.52829671011301 239.8571106573953 -79.03669101740387 241.16149880903563 -82.35590504138459 241.17564196390396C-89.25940101380498 241.20499425092353 -96.48366676224632 235.9949978804539 -98.25678516708324 230.32317300251557C-98.46914814290591 229.62934377279996 -98.59088281015782 228.94958210770918 -98.62220618949863 228.2953032628966C-104.53801810585624 226.30596232944006 -111.43496521282687 223.64798374408548 -115.58081486263937 222.53333386233612C-116.81451229006113 223.76901564918973 -118.51123942885805 224.72248898983358 -120.48062961790338 225.26650656961482C-120.89330128820416 229.05794633874663 -120.61741912890929 236.05792223545265 -120.76452444437368 242.57825547011387C-114.87427964953491 243.8420297090017 -109.93817876246139 249.47589976074843 -108.94125106008661 256.94386497753726C-107.56817453798718 267.3132085862315 -114.03217623348442 277.3450319875505 -123.62498555749619 277.34523091622793C-133.19618897833396 277.34531147424485 -139.50789303262994 267.3512862515227 -138.0274225008402 257.0140844775002C-136.96717373108106 249.65975567037714 -132.10385881720393 244.04329232344182 -126.30284126136041 242.64785319195133C-126.70961555053269 236.1032498262871 -126.7239328335153 229.08205603034617 -127.3196617860234 225.40597595149015C-129.18054831487294 224.97059325504094 -130.80993654243437 224.16212405585847 -132.04416672372892 223.077617657492C-136.12285404430617 224.38141531457393 -143.102724635849 227.5188418244662 -149.18418374763485 229.95023148487934C-149.04989385496233 231.06319720814983 -149.18575531739324 232.2870493710221 -149.59713940049636 233.5629067502462C-151.58111255743935 239.66582722441683 -159.15955810838614 245.34364143164407 -166.22916576672793 245.37053358948515C-173.28692436706004 245.39746305381053 -175.62928316716489 239.7735983070976 -171.9912174819765 233.67949059410927C-170.41684658117305 231.04231234981043 -167.89364018647208 228.6609194171794 -164.99886338603866 226.9870460330822C-162.22488390700258 225.38302239392112 -159.23432423816604 224.50159624363334 -156.59443977172617 224.48500197769334C-154.08887769846487 224.4720059892294 -151.9821880693311 225.23862711408415 -150.65640544084218 226.67489987194375C-144.7380973447627 223.7189974312948 -137.60973835715373 220.53155085282336 -134.41577779408956 218.5312760748641C-134.44352003707436 218.09931684792468 -134.4214958259871 217.6670425391589 -134.3508981006296 217.2390181412625C-134.01050271194688 215.28214530007094 -132.6707851353326 213.50395437054055 -130.67472891696653 212.2464004208908C-128.7563239617201 211.03776826599457 -126.32253592849618 210.36814347367218 -123.84999006686098 210.34850708067316C-123.84999006686098 210.34850708067316 -123.84999006686094 210.34850708067313 -123.84999006686094 210.34850708067313"
       style="opacity:0.96700003;fill:#9cbcb6;fill-opacity:1;stroke:none;stroke-width:0.30000001;stroke-miterlimit:4;stroke-dasharray:none;stroke-opacity:1" />
    <path
       style="opacity:0.96700003;fill:#b8c9bf;fill-opacity:1;stroke:none;stroke-width:0.3750703;stroke-miterlimit:4;stroke-dasharray:none;stroke-opacity:1"
       d="m -477.00602,-54.440086 -44.90114,44.9016505 V 31.282845 h 89.80279 V -9.5384355 h -5e-4 z"
       id="rect832"
       inkscape:connector-curvature="0" />
    <rect
       style="opacity:0.96700003;fill:#d38d5f;fill-opacity:1;stroke:none;stroke-width:0.30000001;stroke-miterlimit:4;stroke-dasharray:none;stroke-opacity:1"
       id="rect6543"
       width="20.409674"
       height="32.225796"
       x="-510.07028"
       y="3.0098789" />
    <rect
       style="opacity:0.96700003;fill:#d38d5f;fill-opacity:1;stroke:none;stroke-width:0.30000001;stroke-miterlimit:4;stroke-dasharray:none;stroke-opacity:1"
       id="rect6545"
       width="26.210316"
       height="15.683222"
       x="-472.90317"
       y="0.21697681" />
    <path
       style="opacity:0.96700003;fill:#d38d5f;fill-opacity:1;stroke:none;stroke-width:0.30000001;stroke-miterlimit:4;stroke-dasharray:none;stroke-opacity:1"
       d="m -477.00345,-70.436529 -55.6028,55.602807 4.02818,4.028177 51.57205,-51.572046 51.57256,51.572046 4.02817,-4.028177 -51.57205,-51.572047 0.002,-0.0021 z"
       id="rect6547"
       inkscape:connector-curvature="0" />
    <path
       style="opacity:0.96700003;fill:#b8c9bf;fill-opacity:1;stroke:none;stroke-width:1.41758859;stroke-miterlimit:4;stroke-dasharray:none;stroke-opacity:1"
       d="M -1196 -520.7168 L -1365.7051 -351.00977 L -1365.7051 -196.72461 L -1320.9688 -196.72461 L -1320.9688 -310.52344 L -1243.8301 -310.52344 L -1243.8301 -196.72461 L -1026.293 -196.72461 L -1026.293 -351.00977 L -1026.2969 -351.00977 L -1196 -520.7168 z M -1186.4941 -314.13867 L -1145.4316 -314.13867 L -1145.4316 -254.86328 L -1186.4941 -254.86328 L -1186.4941 -314.13867 z M -1125.4316 -314.13867 L -1084.3691 -314.13867 L -1084.3691 -254.86328 L -1125.4316 -254.86328 L -1125.4316 -314.13867 z "
       transform="scale(0.26458333)"
       id="rect832-6" />
    <path
       style="opacity:0.96700003;fill:#b8c9bf;fill-opacity:0.96862745;stroke:none;stroke-width:0.30000001;stroke-miterlimit:4;stroke-dasharray:none;stroke-opacity:1"
       d="m -316.43934,-153.76943 -55.6028,55.602804 4.02818,4.028178 51.57205,-51.572042 51.57256,51.572042 4.02817,-4.028178 -51.57205,-51.572044 0.002,-0.002 z"
       id="rect6547-3"
       inkscape:connector-curvature="0" />
    <g
       id="g4936">
      <ellipse
         ry="27.516666"
         rx="24.341667"
         cy="-255.44998"
         cx="-71.966667"
         id="path4904"
         style="opacity:0.96700003;fill:#000000;fill-opacity:0.96862745;stroke:none;stroke-width:0.30000001;stroke-miterlimit:4;stroke-dasharray:none;stroke-opacity:1" />
      <ellipse
         ry="21.695833"
         rx="30.1625"
         cy="-225.28749"
         cx="-51.329166"
         id="path4906"
         style="opacity:0.96700003;fill:#000000;fill-opacity:0.96862745;stroke:none;stroke-width:0.34145412;stroke-miterlimit:4;stroke-dasharray:none;stroke-opacity:1" />
      <ellipse
         ry="22.754166"
         rx="25.4"
         cy="-224.22916"
         cx="-94.191666"
         id="path4908"
         style="opacity:0.96700003;fill:#000000;fill-opacity:0.96862745;stroke:none;stroke-width:0.30000001;stroke-miterlimit:4;stroke-dasharray:none;stroke-opacity:1" />
      <ellipse
         ry="18.520834"
         rx="23.283333"
         cy="-207.29582"
         cx="-55.033333"
         id="path4918"
         style="opacity:0.96700003;fill:#000000;fill-opacity:0.96862745;stroke:none;stroke-width:0.30000001;stroke-miterlimit:4;stroke-dasharray:none;stroke-opacity:1" />
      <ellipse
         ry="12.7"
         rx="21.166666"
         cy="-202.53333"
         cx="-85.724998"
         id="path4920"
         style="opacity:0.96700003;fill:#000000;fill-opacity:0.96862745;stroke:none;stroke-width:0.30000001;stroke-miterlimit:4;stroke-dasharray:none;stroke-opacity:1" />
      <ellipse
         ry="8.9958334"
         rx="11.641666"
         cy="-248.57082"
         cx="-46.566666"
         id="path4922"
         style="opacity:0.96700003;fill:#000000;fill-opacity:0.96862745;stroke:none;stroke-width:0.30000001;stroke-miterlimit:4;stroke-dasharray:none;stroke-opacity:1" />
      <ellipse
         ry="8.9958334"
         rx="9.5249996"
         cy="-247.51248"
         cx="-100.54166"
         id="path4924"
         style="opacity:0.96700003;fill:#000000;fill-opacity:0.96862745;stroke:none;stroke-width:0.30000001;stroke-miterlimit:4;stroke-dasharray:none;stroke-opacity:1" />
      <path
         inkscape:connector-curvature="0"
         id="path4926"
         d="m -76.182292,-205.67683 -3.163208,47.57022 h 15.816041 l -5.272014,-46.03569 z"
         style="fill:#000000;fill-opacity:0.96862745;stroke:#000000;stroke-width:0.3180021px;stroke-linecap:butt;stroke-linejoin:miter;stroke-opacity:1" />
    </g>
    <g
       id="g5833">
      <path
         inkscape:connector-curvature="0"
         id="path4904-6"
         d="m 17.462499,-184.6094 a 24.341667,27.516666 0 0 0 -24.337015,27.4097 9.5249996,8.9958332 0 0 0 -4.237985,-0.95137 9.5249996,8.9958332 0 0 0 -9.525,8.99583 9.5249996,8.9958332 0 0 0 1.373042,4.63486 25.399999,22.754165 0 0 0 -10.898041,18.64848 25.399999,22.754165 0 0 0 12.957865,19.82308 21.166666,12.7 0 0 0 -0.257866,1.87275 21.166666,12.7 0 0 0 21.1666668,12.700001 21.166666,12.7 0 0 0 8.5622682,-1.102776 l -2.182812,32.829521 h 15.816087 l -3.83749,-33.506481 a 23.283333,18.520834 0 0 0 12.333613,2.838069 23.283333,18.520834 0 0 0 23.283333,-18.520834 23.283333,18.520834 0 0 0 -0.08268,-1.46916 30.1625,21.695833 0 0 0 10.666015,-16.52251 30.1625,21.695833 0 0 0 -15.277102,-18.85259 11.641666,8.9958332 0 0 0 1.518769,-4.43074 11.641666,8.9958332 0 0 0 -11.641666,-8.99583 11.641666,8.9958332 0 0 0 -1.132232,0.0512 24.341667,27.516666 0 0 0 -24.267768,-25.45116 z"
         style="opacity:0.96700003;fill:#000000;fill-opacity:0.96862745;stroke:none;stroke-width:0.30000001;stroke-miterlimit:4;stroke-dasharray:none;stroke-opacity:1" />
      <path
         inkscape:connector-curvature="0"
         id="rect5797"
         d="m -33.890592,-109.75147 -0.949477,0.077 -0.541846,0.2671 -0.07221,0.0356 -0.0683,0.0442 -0.679206,0.44461 -0.06541,0.0423 -0.06017,0.0503 -0.654609,0.54478 -0.05729,0.0481 -0.0526,0.0537 -0.350863,0.36392 -0.411544,1.04837 0.430124,1.04114 1.003905,0.38702 0.872024,-0.40705 0.302716,-0.31217 0.52798,-0.43961 0.551786,-0.36169 0.468596,-0.23038 0.714008,-0.84443 -0.08112,-1.13351 z m -12.390548,0.0434 -0.760312,0.79684 0.01776,1.13685 0.668482,0.72035 0.467806,0.23037 0.552572,0.3617 0.532174,0.44377 0.298527,0.30801 0.996831,0.40928 0.965967,-0.48496 0.338283,-1.07786 -0.406324,-0.91594 -0.35111,-0.36365 -0.05233,-0.0537 -0.05757,-0.0484 -0.654611,-0.54477 -0.06017,-0.0504 -0.06541,-0.042 -0.68025,-0.44489 -0.06724,-0.0442 -0.07325,-0.0356 -0.541858,-0.2671 z m -4.522897,0.25318 -0.931694,0.21034 -0.554666,0.37645 -0.06724,0.0453 -0.06226,0.0537 -0.61903,0.53837 -0.06046,0.0514 -0.05335,0.059 -0.581348,0.63408 -0.05153,0.0556 -0.04554,0.0609 -0.261897,0.35558 -0.276039,1.09789 0.555733,0.97047 1.044432,0.24178 0.812642,-0.52668 0.213757,-0.2902 0.477488,-0.52168 0.499465,-0.43432 0.48952,-0.33109 0.602284,-0.9382 -0.221602,-1.11152 z m 21.432409,0.0264 -0.853444,0.68361 -0.123496,1.12823 0.572455,0.80881 0.492668,0.33416 0.496312,0.43126 0.473568,0.51751 0.217681,0.29437 0.93639,0.5456 1.018545,-0.34361 0.469642,-1.02027 -0.287795,-0.96519 -0.2619,-0.35557 -0.04554,-0.0609 -0.05153,-0.0556 -0.581362,-0.63408 -0.05442,-0.059 -0.0594,-0.0514 -0.61903,-0.53837 -0.06226,-0.0537 -0.06724,-0.0453 -0.55571,-0.37644 z m -9.426991,6.24961 -1.061723,0.12715 -0.186805,0.23789 -0.257182,-0.2977 -1.068007,-0.0222 -0.752462,0.80548 -0.01802,0.97909 -0.0067,0.002 0.006,0.0242 v 0.008 l 0.0078,0.0253 0.288585,1.14714 0.22553,1.250369 0.0099,0.08625 0.535828,0.983268 1.038439,0.265988 0.05181,-0.03533 0.09446,0.05237 1.011474,-0.368094 0.439289,-0.898131 0.0078,-0.07679 0.227367,-1.25982 0.288841,-1.14715 0.0078,-0.0253 v -0.007 l 0.006,-0.025 -0.0081,-0.003 -0.06802,-1.10096 z m -16.094527,0.90231 -1.036334,0.27433 -0.509149,0.85612 -0.03559,0.18391 -0.011,0.0545 -0.007,0.0548 -0.158304,1.298776 -0.0063,0.05144 -0.0032,0.05262 -0.07505,1.386979 0.362886,1.068398 0.976944,0.459644 0.987937,-0.435433 0.383561,-0.926513 0.07221,-1.334394 0.145212,-1.189427 0.02589,-0.13551 -0.210602,-1.11376 z m 29.611415,0.0262 -0.847443,0.69307 -0.144417,1.00107 0.02486,0.12604 0.147306,1.198898 0.07115,1.334394 0.476701,1.016938 1.020381,0.336657 0.933511,-0.552292 0.281791,-0.967399 -0.0751,-1.38698 -0.0032,-0.05262 -0.0058,-0.05144 -0.159342,-1.298776 -0.0067,-0.0548 -0.0099,-0.0546 -0.03663,-0.18419 -0.611959,-0.93041 z m -14.922924,7.582895 -0.98192,0.446006 -0.375714,0.930684 -0.04734,1.071462 -0.001,0.0125 v 0.0125 l -0.05155,1.815186 0.390632,1.056716 0.990028,0.430137 0.279945,-0.133266 0.356874,0.129096 0.947122,-0.524742 0.306639,-0.957941 -0.05048,-1.815186 -10e-4,-0.0125 v -0.0125 l -0.04763,-1.071462 -0.466759,-1.022225 -1.016455,-0.34807 -0.09602,0.05539 z m 0.438245,8.664104 -0.284138,0.134937 -0.361576,-0.130766 -0.610407,0.338051 h -10.79195 v 7.977423 h -9.644941 v 18.803936 h 42.866404 v -18.803936 h -9.644943 v -7.977423 h -10.741715 z"
         style="opacity:0.96700003;fill:#000000;fill-opacity:0.96862745;stroke:none;stroke-width:0.15663172;stroke-miterlimit:4;stroke-dasharray:none;stroke-opacity:1" />
    </g>
  </g>
</svg>
