<?xml version="1.0" encoding="UTF-8" standalone="no"?>
<!-- Created with Inkscape (http://www.inkscape.org/) -->

<svg
   xmlns:dc="http://purl.org/dc/elements/1.1/"
   xmlns:cc="http://creativecommons.org/ns#"
   xmlns:rdf="http://www.w3.org/1999/02/22-rdf-syntax-ns#"
   xmlns:svg="http://www.w3.org/2000/svg"
   xmlns="http://www.w3.org/2000/svg"
   xmlns:sodipodi="http://sodipodi.sourceforge.net/DTD/sodipodi-0.dtd"
   xmlns:inkscape="http://www.inkscape.org/namespaces/inkscape"
   width="210mm"
   height="297mm"
   viewBox="0 0 210 297"
   version="1.1"
   id="svg8"
   inkscape:version="0.92.4 (5da689c313, 2019-01-14)"
   sodipodi:docname="描画.svg">
  <defs
     id="defs2" />
  <sodipodi:namedview
     id="base"
     pagecolor="#ffffff"
     bordercolor="#666666"
     borderopacity="1.0"
     inkscape:pageopacity="0.0"
     inkscape:pageshadow="2"
     inkscape:zoom="0.35"
     inkscape:cx="-228.57143"
     inkscape:cy="548.57143"
     inkscape:document-units="mm"
     inkscape:current-layer="layer1"
     showgrid="false"
     inkscape:window-width="1856"
     inkscape:window-height="1016"
     inkscape:window-x="64"
     inkscape:window-y="27"
     inkscape:window-maximized="1" />
  <metadata
     id="metadata5">
    <rdf:RDF>
      <cc:Work
         rdf:about="">
        <dc:format>image/svg+xml</dc:format>
        <dc:type
           rdf:resource="http://purl.org/dc/dcmitype/StillImage" />
        <dc:title></dc:title>
      </cc:Work>
    </rdf:RDF>
  </metadata>
  <g
     inkscape:label="レイヤー 1"
     inkscape:groupmode="layer"
     id="layer1">
    <path
       style="opacity:0.96700003;fill:#bcb89c;fill-opacity:1;stroke:none;stroke-width:0.30000001;stroke-miterlimit:4;stroke-dasharray:none;stroke-opacity:1"
       inkscape:transform-center-x="-2.3523809e-06"
       d="m -162.9922,25.27072 c -0.28595,8.865567 60.74763,40.864138 55.93963,48.31821 -4.84122,7.505572 -60.94168,-32.567947 -68.8165,-28.353888 -7.82078,4.185143 -5.01556,73.041058 -13.87498,72.604248 -8.92062,-0.43983 -2.26617,-69.061019 -9.85306,-73.773779 -7.53483,-4.680424 -65.7632,32.176921 -69.81461,24.286036 -4.07941,-7.945404 58.67551,-36.49307 58.96343,-45.41989 18.60236,-15.9265311 23.16021,-16.0177271 47.45609,2.339063 z"
       id="path815"
       inkscape:connector-curvature="0"
       sodipodi:nodetypes="cssssscc" />
    <circle
       style="opacity:0.96700003;fill:#bcb89c;fill-opacity:1;stroke:none;stroke-width:0.30000001;stroke-miterlimit:4;stroke-dasharray:none;stroke-opacity:1"
       id="path817"
       cx="-189.36607"
       cy="121.24107"
       r="25.324406" />
    <circle
       style="opacity:0.96700003;fill:#bcb89c;fill-opacity:1;stroke:none;stroke-width:0.30000001;stroke-miterlimit:4;stroke-dasharray:none;stroke-opacity:1"
       id="path817-3"
       cx="-272.8988"
       cy="68.702377"
       r="25.324406" />
    <circle
       style="opacity:0.96700003;fill:#bcb89c;fill-opacity:1;stroke:none;stroke-width:0.30000001;stroke-miterlimit:4;stroke-dasharray:none;stroke-opacity:1"
       id="path817-6"
       cx="-105.07738"
       cy="76.261902"
       r="25.324406" />
    <circle
       style="opacity:0.96700003;fill:#bcb89c;fill-opacity:1;stroke:none;stroke-width:0.34477612;stroke-miterlimit:4;stroke-dasharray:none;stroke-opacity:1"
       id="path817-3-7"
       cx="-187.4762"
       cy="26.369047"
       r="29.104168" />
    <path
       style="opacity:0.96700003;fill:#9cbcb6;fill-opacity:1;stroke:none;stroke-width:0.30000001;stroke-miterlimit:4;stroke-dasharray:none;stroke-opacity:1"
       d="m 115.66062,249.18577 a 29.104166,29.104166 0 0 0 29.10416,-29.10416 29.104166,29.104166 0 0 0 -0.23409,-3.38842 c 8.46955,-6.57093 24.3954,-15.49787 36.63549,-23.31538 a 25.324405,25.324405 0 0 0 19.91713,9.69502 25.324405,25.324405 0 0 0 25.32455,-25.32456 25.324405,25.324405 0 0 0 -25.32455,-25.32455 25.324405,25.324405 0 0 0 -25.32403,25.32455 25.324405,25.324405 0 0 0 0.63613,5.49734 c -12.86943,5.78008 -28.66625,14.00081 -38.88496,17.66456 a 29.104166,29.104166 0 0 0 -12.87208,-8.49561 c -1.27137,-10.92003 -1.06744,-28.52573 -1.7198,-42.48784 A 25.324405,25.324405 0 0 0 142.87498,125.20936 25.324405,25.324405 0 0 0 117.55094,99.885319 25.324405,25.324405 0 0 0 92.226386,125.20936 25.324405,25.324405 0 0 0 111.75491,149.8337 c -1.41324,14.01932 -2.19431,31.68622 -4.12636,42.28631 a 29.104166,29.104166 0 0 0 -12.510864,7.36906 c -9.90249,-4.05458 -25.49271,-13.31399 -38.331,-19.98483 a 25.324405,25.324405 0 0 0 1.79989,-9.31571 25.324405,25.324405 0 0 0 -25.32454,-25.32404 25.324405,25.324405 0 0 0 -25.3245504,25.32404 25.324405,25.324405 0 0 0 25.3245504,25.32455 25.324405,25.324405 0 0 0 17.18395,-6.75411 c 12.39858,8.93441 28.92439,19.38531 36.55074,26.46815 a 29.104166,29.104166 0 0 0 -0.44028,4.85449 29.104166,29.104166 0 0 0 29.104174,29.10416 z"
       id="path815-5"
       inkscape:connector-curvature="0" />
    <path
       style="opacity:0.96700003;fill:#9cbcb6;fill-opacity:1;stroke:none;stroke-width:0.2298954;stroke-miterlimit:4;stroke-dasharray:none;stroke-opacity:1"
       d="m -149.91021,295.28819 -39.83382,66.72371 h 149.678556 l -39.83381,-67.27974 z"
       id="rect4587"
       inkscape:connector-curvature="0"
       sodipodi:nodetypes="ccccc" />
    <path
       id="path815-5-1"
       d="M-313.44630010949345 168.35439395721536C-314.64779348016526 163.99930085240877 -317.63900444420574 160.04795499520927 -321.6945736527934 157.2781664742383C-325.6105431916707 154.60371883954198 -330.30987246229563 153.17531492265707 -334.8591943817456 153.2359362070675C-335.5256493126387 153.25059184451334 -336.1860504785948 153.2970090476912 -336.8374202051104 153.3749939298543C-341.21927283933564 149.45754604350608 -347.0026734147867 142.58281187037454 -351.6053119488109 137.71999589880488C-348.5368017957743 135.82892495319794 -346.95135121706494 133.07233935250486 -347.2347817069591 130.29748737606707C-347.4716928041407 127.9893233815348 -348.984766169641 125.87039357325597 -351.4010190223355 124.37428127035116C-353.7596539866803 122.91384521363528 -356.8319074727627 122.1387592955812 -359.9836993563266 122.19249036589572C-363.1331385859019 122.24615782036868 -366.18484115018975 123.12440319712212 -368.51034282998125 124.66117762198623C-370.8899779458092 126.23372535148977 -372.35916667287387 128.39580605705032 -372.55638078261865 130.70413262051C-372.98986509178053 135.77866568365815 -367.31366022950095 140.09106707924687 -359.83572751042703 139.97934647325107C-358.84556999145246 139.96031383844894 -357.8606316721552 139.86016611097364 -356.90017222729887 139.6809773469305C-353.5414167608884 144.9632302593147 -348.40314014303516 152.0049699251294 -345.80050858681045 156.94664102030092C-348.0259566308299 158.72663932296643 -349.64763253401804 161.0618163318148 -350.47840192390976 163.7412900079731C-357.2841158529927 164.51886754521212 -368.2988646620215 164.5395522779529 -377.0455591709286 165.0024698731919C-377.9807921473893 158.8556315246617 -383.58079300753934 154.80171596771925 -390.5467935456827 154.88659773167282C-398.7163570492014 154.99467401690742 -406.9101292280578 160.77158763253067 -409.02566300696657 168.37600637876787C-411.34568119991496 176.71576084307708 -405.58848925246576 184.01614285872705 -395.93514330457754 183.9219681318447C-387.811560341441 183.83383309773922 -380.1893066655493 178.4347857728207 -377.70895499010186 171.37447528274103C-368.64839523500893 172.11361298488302 -357.0909974486291 172.45377652431773 -350.05684092286214 173.54745258598024C-348.960991548259 176.46822306028608 -347.04485491397054 179.20498418800955 -344.4660208767608 181.47096207221765C-346.7648233191311 188.33816769509437 -352.93195590047793 200.24450941607682 -357.8389064511904 211.18630813960652C-360.2132591015808 210.1502373468131 -362.72273043695077 209.62754350384026 -365.2524471651016 209.63766388231215C-376.3229334609994 209.71184895029853 -386.46073796229564 220.2269309980172 -388.0919933928537 234.6222768329202C-389.94707108148896 250.99146362040105 -380.3473572658463 266.00565273994175 -366.364570224935 266.0059443050945C-359.6331691335702 266.0060017956669 -353.2752973565319 262.2993616365783 -348.8646699126475 255.94165244815548C-344.65498102497725 249.87358660898497 -342.7082158304759 242.0818148174325 -343.2759153625203 234.45502918833938C-343.79049892547687 227.6418333079283 -346.2795732373209 221.451118109873 -350.1424166028383 216.967285789933C-343.70128289545835 205.7993436816671 -337.1173716910216 192.53562167742206 -332.73122774013524 186.93886659247593C-331.55416352499816 187.1280421926763 -330.3747222269077 187.2216828850295 -329.2070897941447 187.21846671734795C-317.6708073792405 187.11113935990136 -310.7331781622961 178.1887431093816 -313.4463001094935 168.35439395721536C-313.4463001094935 168.35439395721536 -313.44630010949345 168.35439395721536 -313.44630010949345 168.35439395721536"
       style="opacity:0.96700003;fill:#9cbcb6;fill-opacity:1;stroke:none;stroke-width:0.30000001;stroke-miterlimit:4;stroke-dasharray:none;stroke-opacity:1"
       inkscape:connector-curvature="0" />
    <path
       inkscape:connector-curvature="0"
       id="path815-5-2"
       d="M-252.90471532833578 275.352710146596C-258.05307359510766 275.39359945297855 -262.6740411820422 278.295367915948 -263.2960965700518 282.2432249197988C-263.3386571321698 282.5405967022307 -263.3577196209213 282.8400585599333 -263.352864230445 283.14008525483683C-266.7805155270978 284.9735831584093 -273.44343232961836 287.6389358467903 -279.0250206642462 290.1389307701501C-280.1928666487977 288.2041879133022 -282.5760770253424 287.1321483154864 -285.5359541238583 287.1507707677935C-288.09137465275614 287.16754588143243 -290.97177412144083 287.9941448223484 -293.6274933093312 289.4955357655965C-296.3949459081005 291.06009435545303 -298.7852230609678 293.28127378777447 -300.2500913856314 295.7350312129338C-301.81168376686225 298.35075008153973 -302.1993624537403 301.0208682555821 -301.2086485917121 303.098590671395C-300.16719624279 305.28272170386754 -297.732126196618 306.5517423068245 -294.47942550701197 306.5378453216513C-287.69800267964416 306.5088101779987 -280.49749899889844 301.2706958474808 -278.6590372751254 295.61504298091495C-278.438521625579 294.92291204942325 -278.30777565256534 294.2457243770557 -278.26677646513264 293.59487150741853C-272.38085926297197 291.54616055169004 -265.4927102004544 288.81265167895424 -261.34875446664086 287.64743529935595C-260.138258836416 288.86531735584845 -258.46076528239877 289.79627043617853 -256.50331266206797 290.31543044305374C-256.1497920962083 294.09979334760834 -256.53361044456886 301.098656877554 -256.4875411161388 307.613644872621C-262.38151426447035 308.92329961228114 -267.3785700020173 314.57822970785475 -268.4838808030049 322.02702843465465C-270.0066139230711 332.36358562279156 -263.7369436299179 342.35693740607474 -254.16707691433544 342.35713058042165C-244.5752885200176 342.3572074988407 -238.07050627913432 332.32584149209845 -239.400701887313 321.9568161573717C-240.35354547845316 314.58409976990987 -245.15504195534447 308.98812863518634 -250.95016028222273 307.6376366108722C-250.4413609224796 301.0843800048375 -250.31818961717565 294.0571632733364 -249.66442227173678 290.3705816356057C-247.7923895982268 289.9116005326107 -246.1452482232652 289.0813490953638 -244.88938617337675 287.9789046724581C-240.80995103068818 289.23401068124775 -233.82458838492332 292.29807066184117 -227.71472288357367 294.6719564100015C-227.86805919639855 295.7933238684532 -227.74964513498296 297.02326069966267 -227.3530744708699 298.3027054317579C-225.43868934884964 304.4260317449755 -217.83323657778047 310.0837377568398 -210.63085043758875 310.0562571923114C-203.41616871189862 310.0288154395699 -200.92747479996396 304.31618742551564 -204.55799298673813 298.1840339749584C-206.12716055918418 295.5336639708115 -208.66861770537102 293.15504451302104 -211.59720763248552 291.4984862739495C-214.39979946853214 289.91319891303436 -217.43035548902202 289.06165199730304 -220.1138853002812 289.07854559423276C-222.65778653051757 289.0973345750667 -224.80651858718394 289.8960310143683 -226.17255938588423 291.35835237368065C-232.11383026429775 288.4591116306839 -239.2535254284731 285.35200306853557 -242.4358502829966 283.3895734242967C-242.40124541757146 282.95604754920953 -242.41666814863908 282.52290716286143 -242.48098894312807 282.09472788737986C-242.7927519448603 280.1375801925196 -244.11133407407783 278.37507063105863 -246.095965895387 277.14552116123684C-248.0016270165678 275.9648968277712 -250.43015073513527 275.333056874398 -252.90471533208208 275.3527101466258C-252.90471533208208 275.3527101466258 -252.90471533058738 275.3527101466139 -252.90471533058738 275.3527101466139"
       style="opacity:0.96700003;fill:#9cbcb6;fill-opacity:1;stroke:none;stroke-width:0.30000001;stroke-miterlimit:4;stroke-dasharray:none;stroke-opacity:1" />
    <path
       inkscape:connector-curvature="0"
       id="path815-5-7"
       d="M-123.84999006686095 210.34850708067316C-118.69652609183295 210.3075788468508 -114.10474590742999 213.142483404226 -113.54112260740324 217.09055914461388C-113.50297790324011 217.38805335219283 -113.48847650271148 217.68798162734242 -113.49801706125089 217.98881590251457C-110.0795575896688 219.7799334309531 -103.40457676201515 222.3668728353562 -97.80078024275899 224.80914006467796C-96.58798649785578 222.8472444000322 -94.15592522733778 221.73664414490034 -91.15265182509918 221.7160888620544C-88.55635630290655 221.69902211763284 -85.63875267773061 222.49477633085428 -82.95678630441093 223.97587389071705C-80.15836769842801 225.52128139844265 -77.75205834649032 227.7370788916254 -76.2932126520517 230.20111456582524C-74.73692741501927 232.8296700943171 -74.38222553793152 235.5270002481262 -75.42873545532741 237.63853482603733C-76.52829671011301 239.8571106573953 -79.03669101740387 241.16149880903563 -82.35590504138459 241.17564196390396C-89.25940101380498 241.20499425092353 -96.48366676224632 235.9949978804539 -98.25678516708324 230.32317300251557C-98.46914814290591 229.62934377279996 -98.59088281015782 228.94958210770918 -98.62220618949863 228.2953032628966C-104.53801810585624 226.30596232944006 -111.43496521282687 223.64798374408548 -115.58081486263937 222.53333386233612C-116.81451229006113 223.76901564918973 -118.51123942885805 224.72248898983358 -120.48062961790338 225.26650656961482C-120.89330128820416 229.05794633874663 -120.61741912890929 236.05792223545265 -120.76452444437368 242.57825547011387C-114.87427964953491 243.8420297090017 -109.93817876246139 249.47589976074843 -108.94125106008661 256.94386497753726C-107.56817453798718 267.3132085862315 -114.03217623348442 277.3450319875505 -123.62498555749619 277.34523091622793C-133.19618897833396 277.34531147424485 -139.50789303262994 267.3512862515227 -138.0274225008402 257.0140844775002C-136.96717373108106 249.65975567037714 -132.10385881720393 244.04329232344182 -126.30284126136041 242.64785319195133C-126.70961555053269 236.1032498262871 -126.7239328335153 229.08205603034617 -127.3196617860234 225.40597595149015C-129.18054831487294 224.97059325504094 -130.80993654243437 224.16212405585847 -132.04416672372892 223.077617657492C-136.12285404430617 224.38141531457393 -143.102724635849 227.5188418244662 -149.18418374763485 229.95023148487934C-149.04989385496233 231.06319720814983 -149.18575531739324 232.2870493710221 -149.59713940049636 233.5629067502462C-151.58111255743935 239.66582722441683 -159.15955810838614 245.34364143164407 -166.22916576672793 245.37053358948515C-173.28692436706004 245.39746305381053 -175.62928316716489 239.7735983070976 -171.9912174819765 233.67949059410927C-170.41684658117305 231.04231234981043 -167.89364018647208 228.6609194171794 -164.99886338603866 226.9870460330822C-162.22488390700258 225.38302239392112 -159.23432423816604 224.50159624363334 -156.59443977172617 224.48500197769334C-154.08887769846487 224.4720059892294 -151.9821880693311 225.23862711408415 -150.65640544084218 226.67489987194375C-144.7380973447627 223.7189974312948 -137.60973835715373 220.53155085282336 -134.41577779408956 218.5312760748641C-134.44352003707436 218.09931684792468 -134.4214958259871 217.6670425391589 -134.3508981006296 217.2390181412625C-134.01050271194688 215.28214530007094 -132.6707851353326 213.50395437054055 -130.67472891696653 212.2464004208908C-128.7563239617201 211.03776826599457 -126.32253592849618 210.36814347367218 -123.84999006686098 210.34850708067316C-123.84999006686098 210.34850708067316 -123.84999006686094 210.34850708067313 -123.84999006686094 210.34850708067313"
       style="opacity:0.96700003;fill:#9cbcb6;fill-opacity:1;stroke:none;stroke-width:0.30000001;stroke-miterlimit:4;stroke-dasharray:none;stroke-opacity:1" />
  </g>
</svg>
